:SAMPLES-PER-SECOND 30
:FULLY-SPECIFIED
:DEGREES
350
root  -1.1889 6.02362 15.5247 -45.1052 -5.11628 1.38829
RightUpLeg  -89.5383 -10.9286 6.43643
RightLeg  89.0438 16.1743 -8.459
RightFoot  28.4052 2.2226 -6.15153
RightToes  5.82077e-011 -3.18055e-015 -2.98177e-016
Spine  23.8726 1.8569 -2.72645
Spine1  21.8683 -4.50112 8.72197
HEad  -2.60185 19.1578 1.92383
LeftShoulder1  -3.88251e-019 9.70628e-020 -3.87848e-018
LeftArm  -64.9133 80.7878 -109.295
LeftForeArm  6.02634 -5.76046 -4.32734
LeftHand  -13.2773 -11.9221 77.4082
RightShoulder  5.80078 9.49751 28.5724
RightArm  49.361 -64.1576 -29.6989
RightForeArm  -8.25626 26.7927 -14.0314
RightHand  -8.2153 7.79688 -64.2909
LeftUpLeg  -88.9633 7.8463 2.07988
LeftLeg  89.1105 -13.9602 11.3366
LeftFoot  32.6447 -0.697412 1.87812
LeftToes  5.91571e-011 -3.44359e-011 -3.93244e-011
351
root  -1.19231 6.0251 15.4295 -45.6994 -5.91349 0.722024
RightUpLeg  -88.3084 -11.0236 7.24705
RightLeg  89.077 16.124 -7.34688
RightFoot  28.1803 2.03035 -5.6776
RightToes  5.82077e-011 -3.18055e-015 -2.98177e-016
Spine  25.3975 1.71311 -1.25972
Spine1  20.0856 -3.92079 8.11132
HEad  -0.349167 17.9943 11.1233
LeftShoulder1  -3.88251e-019 9.70628e-020 -3.87848e-018
LeftArm  -63.6502 81.1654 -107.633
LeftForeArm  6.52596 -5.21533 -4.26559
LeftHand  -13.197 -11.8183 77.4064
RightShoulder  5.51618 9.32954 27.3131
RightArm  51.0188 -63.9494 -27.2483
RightForeArm  -8.83939 23.0527 -11.8511
RightHand  -8.36749 8.08215 -64.1234
LeftUpLeg  -88.2189 7.7913 3.41368
LeftLeg  88.9846 -13.9177 11.0022
LeftFoot  33.144 -0.814265 2.13356
LeftToes  5.91571e-011 -3.44359e-011 -3.93244e-011
352
root  -1.17739 6.05731 15.2968 -46.2642 -7.20871 -0.230781
RightUpLeg  -86.7054 -10.9949 8.59361
RightLeg  88.8674 16.0397 -5.97243
RightFoot  28.0735 1.83772 -5.18287
RightToes  5.82077e-011 -3.18055e-015 -2.98177e-016
Spine  27.0715 1.90282 0.983931
Spine1  18.428 -3.11519 8.27723
HEad  0.0694257 16.8833 19.9283
LeftShoulder1  -3.88251e-019 9.70628e-020 -3.87848e-018
LeftArm  -60.3625 80.9594 -104.611
LeftForeArm  6.92179 -4.51519 -4.40478
LeftHand  -12.8983 -11.5134 77.1482
RightShoulder  5.52697 9.36868 27.2927
RightArm  46.6582 -63.8384 -25.2542
RightForeArm  -6.29968 19.9779 -9.49665
RightHand  -8.94078 8.4841 -66.0753
LeftUpLeg  -87.3828 7.91321 5.35847
LeftLeg  88.7163 -13.861 10.8434
LeftFoot  33.6499 -0.770507 2.01027
LeftToes  5.91571e-011 -3.44359e-011 -3.93244e-011
353
root  -1.1908 6.05234 15.2915 -46.2539 -7.02218 -0.165484
RightUpLeg  -86.722 -11.1064 8.50367
RightLeg  88.8993 16.0348 -5.73207
RightFoot  28.3743 1.97201 -5.49713
RightToes  5.82077e-011 -3.18055e-015 -2.98177e-016
Spine  27.2046 2.59822 1.03421
Spine1  18.1021 -2.6992 9.38532
HEad  -2.05525 17.0713 27.394
LeftShoulder1  -3.88251e-019 9.70628e-020 -3.87848e-018
LeftArm  -58.1086 80.1374 -102.525
LeftForeArm  8.26117 -3.7601 -4.37678
LeftHand  -13.0643 -11.7082 77.2068
RightShoulder  5.47845 9.36279 27.0274
RightArm  40.8831 -64.9497 -25.2819
RightForeArm  -2.73183 19.1541 -9.23738
RightHand  -9.15605 8.59916 -66.8959
LeftUpLeg  -87.32 7.62993 5.36396
LeftLeg  88.52 -13.8416 11.1338
LeftFoot  33.8199 -0.626363 1.67074
LeftToes  5.91571e-011 -3.44359e-011 -3.93244e-011
354
root  -1.21613 6.02419 15.3627 -46.0882 -6.12613 0.2683
RightUpLeg  -87.4259 -11.3325 7.69009
RightLeg  89.1706 16.0729 -6.08907
RightFoot  28.6472 2.1826 -6.01154
RightToes  5.82077e-011 -3.18055e-015 -2.98177e-016
Spine  26.9966 3.45141 0.0813272
Spine1  17.7585 -2.49551 10.932
HEad  -5.68806 17.9484 33.1953
LeftShoulder1  -3.88251e-019 9.70628e-020 -3.87848e-018
LeftArm  -57.2659 79.5118 -101.841
LeftForeArm  9.92927 -3.21007 -4.32588
LeftHand  -13.3855 -12.0452 77.4533
RightShoulder  5.26058 9.24573 26.0147
RightArm  39.2883 -66.3489 -26.9772
RightForeArm  -0.902815 18.845 -9.58191
RightHand  -9.03782 8.59941 -66.2092
LeftUpLeg  -87.6206 7.11477 4.48332
LeftLeg  88.551 -13.8624 11.4289
LeftFoot  33.6976 -0.558457 1.51805
LeftToes  5.91571e-011 -3.44359e-011 -3.93244e-011
355
root  -1.20719 6.03309 15.3684 -46.206 -6.31015 -0.0415706
RightUpLeg  -87.123 -11.3905 7.88878
RightLeg  89.2246 16.0717 -5.93704
RightFoot  28.5436 2.13986 -5.91455
RightToes  5.82077e-011 -3.18055e-015 -2.98177e-016
Spine  27.9492 4.09855 0.793853
Spine1  16.0141 -1.94549 12.4123
HEad  -9.44772 17.9837 37.4166
LeftShoulder1  -3.88251e-019 9.70628e-020 -3.87848e-018
LeftArm  -56.351 79.4795 -101.629
LeftForeArm  10.9595 -2.89055 -4.60012
LeftHand  -13.3125 -11.9991 77.2953
RightShoulder  5.08733 9.1965 25.1099
RightArm  40.6025 -66.6607 -29.6791
RightForeArm  -0.320432 17.6379 -8.72503
RightHand  -9.1452 8.69353 -66.4752
LeftUpLeg  -87.5554 6.90226 4.96204
LeftLeg  88.6717 -13.8825 11.3898
LeftFoot  33.6169 -0.561656 1.52775
LeftToes  5.91571e-011 -3.44359e-011 -3.93244e-011
356
root  -1.17917 6.0681 15.3599 -45.9919 -6.71633 -0.36585
RightUpLeg  -86.9954 -11.2849 8.325
RightLeg  89.0869 16.0529 -5.77606
RightFoot  28.5796 2.11257 -5.83788
RightToes  5.82077e-011 -3.18055e-015 -2.98177e-016
Spine  28.6885 4.62173 1.97444
Spine1  13.9124 -1.30987 13.5895
HEad  -12.2773 16.766 40.4404
LeftShoulder1  -3.88251e-019 9.70628e-020 -3.87848e-018
LeftArm  -55.1842 79.7073 -101.309
LeftForeArm  11.7009 -2.62414 -5.01895
LeftHand  -12.9875 -11.7849 76.6182
RightShoulder  5.02807 9.2625 24.6364
RightArm  42.1928 -66.4939 -32.598
RightForeArm  -0.65754 16.3696 -7.74883
RightHand  -9.37992 8.73878 -67.6557
LeftUpLeg  -87.6971 6.79942 5.59715
LeftLeg  88.6685 -13.8811 11.385
LeftFoot  33.7994 -0.540253 1.47319
LeftToes  5.91571e-011 -3.44359e-011 -3.93244e-011
357
root  -1.17393 6.07215 15.4547 -45.0948 -5.65186 0.374212
RightUpLeg  -88.5182 -11.3103 7.35946
RightLeg  89.1301 16.0915 -6.54091
RightFoot  29.2685 2.50395 -6.74252
RightToes  5.82077e-011 -3.18055e-015 -2.98177e-016
Spine  27.7375 5.08633 1.17896
Spine1  12.9442 -1.25283 14.2686
HEad  -13.4567 14.701 42.4604
LeftShoulder1  -3.88251e-019 9.70628e-020 -3.87848e-018
LeftArm  -54.9381 79.94 -101.101
LeftForeArm  12.8942 -2.38047 -5.07772
LeftHand  -12.8426 -11.813 75.8963
RightShoulder  4.95304 9.29594 24.1356
RightArm  43.2739 -66.9133 -35.1044
RightForeArm  -0.834583 15.7649 -7.63176
RightHand  -9.35171 8.62668 -67.9129
LeftUpLeg  -88.5825 6.27273 4.27238
LeftLeg  88.5556 -13.8796 11.7491
LeftFoot  34.1215 -0.513045 1.40186
LeftToes  5.91571e-011 -3.44359e-011 -3.93244e-011
358
root  -1.16984 6.04291 15.5454 -44.8259 -4.39674 1.18181
RightUpLeg  -89.511 -11.4465 6.10445
RightLeg  89.1957 16.1428 -7.48019
RightFoot  30.1216 3.08919 -8.07911
RightToes  5.82077e-011 -3.18055e-015 -2.98177e-016
Spine  27.1149 5.0872 0.239325
Spine1  12.5401 -1.45671 14.1075
HEad  -13.0731 11.9656 43.3006
LeftShoulder1  -3.88251e-019 9.70628e-020 -3.87848e-018
LeftArm  -55.6344 80.3282 -101.071
LeftForeArm  14.1956 -2.31525 -4.74928
LeftHand  -12.8861 -11.9928 75.4899
RightShoulder  4.8539 9.24442 23.6559
RightArm  44.3178 -67.5102 -36.8494
RightForeArm  -0.255891 15.4242 -7.69854
RightHand  -9.19045 8.48654 -67.5197
LeftUpLeg  -88.8912 5.60981 2.78718
LeftLeg  88.5061 -13.8891 12.1008
LeftFoot  34.3011 -0.531074 1.43839
LeftToes  5.91571e-011 -3.44359e-011 -3.93244e-011
359
root  -1.16251 6.03825 15.5255 -45.2586 -4.52406 1.02002
RightUpLeg  -88.8797 -11.3436 6.07897
RightLeg  89.2021 16.1341 -7.26401
RightFoot  30.3787 3.27999 -8.50311
RightToes  5.82077e-011 -3.18055e-015 -2.98177e-016
Spine  27.8113 4.67095 1.15589
Spine1  11.8032 -1.37267 13.2922
HEad  -12.2679 8.8541 42.8251
LeftShoulder1  -3.88251e-019 9.70628e-020 -3.87848e-018
LeftArm  -55.4825 80.8591 -100.312
LeftForeArm  14.7521 -2.43048 -4.46972
LeftHand  -12.8736 -12.0188 75.3499
RightShoulder  4.85179 9.19818 23.7311
RightArm  45.4611 -67.5007 -37.7955
RightForeArm  0.147746 15.2152 -7.39726
RightHand  -9.19335 8.40338 -67.8525
LeftUpLeg  -88.4481 5.53542 3.06912
LeftLeg  88.5138 -13.8913 12.1154
LeftFoot  34.2609 -0.516153 1.40534
LeftToes  5.91571e-011 -3.44359e-011 -3.93244e-011
